# xmcd CD database file
#
# Track frame offsets:
#	150
#	19094
#	41376
#	57375
#	74710
#	86866
#	106974
#	126643
#	144488
#	166167
#	180826
#	194384
#	210456
#	228247
#	243463
#	257377
#	271583
#	289428
#	309580
#	331595
#
# Disc length: 4675 seconds
#
# Revision: 1
# Processed by: cddbd v1.5.2PL0 Copyright (c) Steve Scherf et al.
# Submitted via: CDex 1.79
#
DISCID=1d124114
DTITLE=Various Artist - Absolute Country CD1
DYEAR=2015
DGENRE=Country
TTITLE0=Brad Paisley feat Alabama/Old Alabama
TTITLE1=Darius Rucker/Wagon wheel
TTITLE2=First aid kit/My silver lining
TTITLE3=Alan Jackson with Jimmy Buffet/It's five o'clock somewhere
TTITLE4=Jill Johnson with Nina Persson/Why'd you come in here looking like that
TTITLE5=Tim McGraw/Please remember me
TTITLE6=Brooks and Dunn/Red dirt road
TTITLE7=Zac Brown band/Chicken fried
TTITLE8=Blake Shelton feat Pistol Annies and Friends/Boys 'round here
TTITLE9=Faith Hill/This kiss
TTITLE10=Brett Eldredge/Beat of the music
TTITLE11=Luke Bryan/Drunk on you
TTITLE12=Miranda Lambert/The House that built me
TTITLE13=Uncle Kracker/Smile
TTITLE14=Chris Young/voices
TTITLE15=Kacey Musgraves/Blowin' smoke
TTITLE16=Hunter Hayes/I want crazy (encore)
TTITLE17=Dwight Yoakam/A thousand miles from nowhere
TTITLE18=Lee Ann Womack/I hope you dance
TTITLE19=Doug Seegers/Going down to the river
EXTD=YEAR: 2015
EXTT0=
EXTT1=
EXTT2=
EXTT3=
EXTT4=
EXTT5=
EXTT6=
EXTT7=
EXTT8=
EXTT9=
EXTT10=
EXTT11=
EXTT12=
EXTT13=
EXTT14=
EXTT15=
EXTT16=
EXTT17=
EXTT18=
EXTT19=
PLAYORDER=
